<svg xmlns="http://www.w3.org/2000/svg" width="49.97" height="49.914" viewBox="0 0 49.97 49.914">
  <g id="Group_991" data-name="Group 991" transform="translate(-2272.593 -792.776)">
    <path id="Path_925" data-name="Path 925" d="M2366.021,796.52a.963.963,0,0,1-.963-.964V793.74a.963.963,0,1,1,1.927,0v1.815A.963.963,0,0,1,2366.021,796.52Z" transform="translate(-68.416)" fill="#fff"/>
    <path id="Path_926" data-name="Path 926" d="M2366.021,974.039a.963.963,0,0,1-.963-.964v-1.815a.963.963,0,1,1,1.927,0v1.815A.963.963,0,0,1,2366.021,974.039Z" transform="translate(-68.416 -131.349)" fill="#fff"/>
    <path id="Path_927" data-name="Path 927" d="M2275.372,886.952h-1.815a.964.964,0,0,1,0-1.929h1.815a.964.964,0,0,1,0,1.929Z" transform="translate(0 -68.255)" fill="#fff"/>
    <path id="Path_928" data-name="Path 928" d="M2453.112,886.952H2451.3a.964.964,0,0,1,0-1.929h1.816a.964.964,0,0,1,0,1.929Z" transform="translate(-131.512 -68.255)" fill="#e40303"/>
    <path id="Path_929" data-name="Path 929" d="M2285.987,930.6a.965.965,0,0,1-.479-1.8l1.587-.908a.965.965,0,0,1,.958,1.675l-1.587.908A.959.959,0,0,1,2285.987,930.6Z" transform="translate(-9.196 -99.883)" fill="#fff"/>
    <path id="Path_930" data-name="Path 930" d="M2439.949,841.626a.964.964,0,0,1-.492-1.794l1.532-.908a.965.965,0,1,1,.985,1.659l-1.532.908A.961.961,0,0,1,2439.949,841.626Z" transform="translate(-123.115 -34.046)" fill="#e40303"/>
    <path id="Path_931" data-name="Path 931" d="M2409.457,962.474a.965.965,0,0,1-.839-.486l-.907-1.589a.965.965,0,0,1,1.677-.956l.907,1.589a.964.964,0,0,1-.838,1.442Z" transform="translate(-99.882 -122.96)" fill="#e40303"/>
    <path id="Path_932" data-name="Path 932" d="M2320.695,808.5a.965.965,0,0,1-.838-.487l-.907-1.589a.965.965,0,0,1,1.677-.956l.906,1.589a.964.964,0,0,1-.838,1.442Z" transform="translate(-34.206 -9.036)" fill="#fff"/>
    <path id="Path_933" data-name="Path 933" d="M2441.481,930.607a.96.96,0,0,1-.493-.135l-1.532-.908a.965.965,0,1,1,.985-1.659l1.532.908a.964.964,0,0,1-.492,1.794Z" transform="translate(-123.115 -99.885)" fill="#e40303"/>
    <path id="Path_934" data-name="Path 934" d="M2287.573,841.628a.963.963,0,0,1-.479-.127l-1.587-.908a.965.965,0,0,1,.958-1.675l1.587.908a.965.965,0,0,1-.479,1.8Z" transform="translate(-9.196 -34.048)" fill="#fff"/>
    <path id="Path_935" data-name="Path 935" d="M2408.549,808.5a.965.965,0,0,1-.838-1.442l.907-1.589a.965.965,0,0,1,1.677.956l-.907,1.589A.965.965,0,0,1,2408.549,808.5Z" transform="translate(-99.882 -9.036)" fill="#e40303"/>
    <path id="Path_936" data-name="Path 936" d="M2319.788,962.474a.964.964,0,0,1-.838-1.442l.907-1.589a.965.965,0,0,1,1.676.956l-.906,1.589A.966.966,0,0,1,2319.788,962.474Z" transform="translate(-34.206 -122.96)" fill="#fff"/>
    <path id="Path_937" data-name="Path 937" d="M2339.415,857.115a.964.964,0,0,1-.6-1.719l6.556-5.213V838.226a.963.963,0,1,1,1.927,0v12.422a.961.961,0,0,1-.363.754l-6.92,5.5A.958.958,0,0,1,2339.415,857.115Z" transform="translate(-48.729 -32.916)" fill="#fff"/>
  </g>
</svg>
