<svg xmlns="http://www.w3.org/2000/svg" width="48.37" height="48.385" viewBox="0 0 48.37 48.385">
  <g id="Group_11480" data-name="Group 11480" transform="translate(-0.077 0.001)">
    <g id="Group_11481" data-name="Group 11481" transform="translate(22.227 9.721)">
      <g id="Group_11480-2" data-name="Group 11480">
        <path id="Path_13316" data-name="Path 13316" d="M235.17,102.868a.719.719,0,0,0-.719.719v1.906a.719.719,0,1,0,1.438,0v-1.906a.719.719,0,0,0-.719-.719Z" transform="translate(-234.451 -102.868)" fill="#fff"/>
      </g>
    </g>
    <g id="Group_11483" data-name="Group 11483" transform="translate(22.227 14.852)">
      <g id="Group_11482" data-name="Group 11482">
        <path id="Path_13317" data-name="Path 13317" d="M235.17,157.169a.719.719,0,0,0-.719.719v1.906a.719.719,0,0,0,1.438,0v-1.906a.719.719,0,0,0-.719-.719Z" transform="translate(-234.451 -157.169)" fill="#fff"/>
      </g>
    </g>
    <g id="Group_11485" data-name="Group 11485" transform="translate(23.84 13.239)">
      <g id="Group_11484" data-name="Group 11484">
        <path id="Path_13318" data-name="Path 13318" d="M254.142,140.1h-1.906a.719.719,0,0,0,0,1.438h1.906a.719.719,0,0,0,0-1.438Z" transform="translate(-251.517 -140.103)" fill="#fff"/>
      </g>
    </g>
    <g id="Group_11487" data-name="Group 11487" transform="translate(18.709 13.239)">
      <g id="Group_11486" data-name="Group 11486">
        <path id="Path_13319" data-name="Path 13319" d="M199.84,140.1h-1.906a.719.719,0,1,0,0,1.438h1.906a.719.719,0,0,0,0-1.438Z" transform="translate(-197.215 -140.103)" fill="#fff"/>
      </g>
    </g>
    <g id="Group_11489" data-name="Group 11489" transform="translate(29.774)">
      <g id="Group_11488" data-name="Group 11488">
        <path id="Path_13320" data-name="Path 13320" d="M331.462,7.606,329.3,7.168A4.681,4.681,0,0,1,325.636,3.5L325.2,1.342a1.674,1.674,0,0,0-3.282,0L321.477,3.5a4.681,4.681,0,0,1-3.665,3.665L315.65,7.6a1.674,1.674,0,0,0,0,3.282l2.162.438a4.681,4.681,0,0,1,3.665,3.665l.438,2.162a1.674,1.674,0,0,0,3.282,0l.438-2.162a4.681,4.681,0,0,1,3.665-3.665l2.161-.438a1.674,1.674,0,0,0,0-3.282Zm-.286,1.872-2.162.438a6.117,6.117,0,0,0-4.789,4.789l-.438,2.162a.236.236,0,0,1-.462,0l-.438-2.162A6.117,6.117,0,0,0,318.1,9.917l-2.162-.438a.236.236,0,0,1,0-.462l2.162-.438a6.117,6.117,0,0,0,4.789-4.789l.438-2.162a.236.236,0,0,1,.462,0l.438,2.162a6.117,6.117,0,0,0,4.789,4.789l2.162.438a.236.236,0,0,1,0,.462Z" transform="translate(-314.309)" fill="#e40303"/>
      </g>
    </g>
    <g id="Group_11491" data-name="Group 11491" transform="translate(27.38 33.566)">
      <g id="Group_11490" data-name="Group 11490">
        <path id="Path_13321" data-name="Path 13321" d="M300,355.688a.72.72,0,0,0-.916-.443,17.835,17.835,0,0,1-9.248.664.719.719,0,0,0-.273,1.412,19.282,19.282,0,0,0,10-.718A.719.719,0,0,0,300,355.688Z" transform="translate(-288.976 -355.205)" fill="#fff"/>
      </g>
    </g>
    <g id="Group_11493" data-name="Group 11493" transform="translate(15.029 23.475)">
      <g id="Group_11492" data-name="Group 11492">
        <path id="Path_13322" data-name="Path 13322" d="M172.957,254.875l-1.834-.372a3.863,3.863,0,0,1-3.024-3.024l-.372-1.834a1.53,1.53,0,0,0-3,0l-.372,1.834a3.863,3.863,0,0,1-3.024,3.024l-1.834.372a1.53,1.53,0,0,0,0,3l1.834.372a3.863,3.863,0,0,1,3.024,3.024l.372,1.834a1.53,1.53,0,0,0,3,0l.372-1.834a3.863,3.863,0,0,1,3.024-3.024l1.834-.372a1.53,1.53,0,0,0,0-3Zm-.286,1.589-1.834.372a5.3,5.3,0,0,0-4.148,4.148l-.372,1.834c-.007.034-.015.073-.089.073s-.082-.039-.089-.073l-.372-1.834a5.3,5.3,0,0,0-4.148-4.148l-1.834-.372c-.034-.007-.073-.015-.073-.089s.039-.082.073-.089l1.834-.372a5.3,5.3,0,0,0,4.148-4.148l.372-1.834c.007-.034.015-.073.089-.073s.082.039.089.073l.372,1.834a5.3,5.3,0,0,0,4.148,4.148l1.834.372c.034.007.073.015.073.089s-.038.081-.073.088Z" transform="translate(-158.273 -248.419)" fill="#e40303"/>
      </g>
    </g>
    <path id="Path_13323" data-name="Path 13323" d="M47.936,25.4a.719.719,0,0,0-.835.335,17.87,17.87,0,0,1-6.862,6.816.72.72,0,0,0,.7,1.258,19.334,19.334,0,0,0,5.645-4.757A22.779,22.779,0,1,1,3.406,15.26a.717.717,0,0,0,.026-.069h0l1.454-2.763A22.809,22.809,0,0,1,19.593,2.062a19.2,19.2,0,0,0-3.65,26.026.719.719,0,1,0,1.174-.831A17.774,17.774,0,0,1,22.91,1.543.719.719,0,0,0,22.5.2,24.261,24.261,0,0,0,3.535,11.877a.725.725,0,0,0-.044.087h0L2.127,14.61a.721.721,0,0,0-.04.077A24.217,24.217,0,1,0,48.445,26.141.719.719,0,0,0,47.936,25.4Z" transform="translate(0 -0.179)" fill="#fff"/>
  </g>
</svg>
