<svg xmlns="http://www.w3.org/2000/svg" width="37.128" height="52.02" viewBox="0 0 37.128 52.02">
  <g id="Group_11479" data-name="Group 11479" transform="translate(-595.565 138.41)">
    <path id="Path_13311" data-name="Path 13311" d="M620.174-43.209a1.188,1.188,0,0,1-.115-.616l.615-7.428a2.751,2.751,0,0,0-2.515-2.968,2.754,2.754,0,0,0-.6.016,5.156,5.156,0,0,0-1.818.611c-.044-.061-.09-.121-.139-.179a3.27,3.27,0,0,0-4.6-.406L606-50v-.936a.343.343,0,0,1,.06-.195l2.883-4.2a.649.649,0,0,0,.058-.1l.327-.479a3.266,3.266,0,0,0-.854-4.539,3.266,3.266,0,0,0-4.539.854l-3.651,5.343a4.662,4.662,0,0,0-.816,2.641v7.081l-1.915,1.6a5.565,5.565,0,0,0-1.973,4.7l.632,7.863v.058a10.125,10.125,0,0,0,2.116,5L600.971-22v3.909a.638.638,0,0,0,.638.638.638.638,0,0,0,.638-.638v-4.132a.638.638,0,0,0-.139-.4l-2.773-3.484a8.847,8.847,0,0,1-1.849-4.366.616.616,0,0,0-.017-.082h0l-.614-7.772a4.286,4.286,0,0,1,1.52-3.617L611.822-53.2a1.989,1.989,0,0,1,2.8.242,1.989,1.989,0,0,1-.242,2.8h-.006l-7,5.865a2.869,2.869,0,0,0-1.212.628l-3.421,2.978a.638.638,0,0,0-.063.9.639.639,0,0,0,.9.063L607-42.694a1.573,1.573,0,0,1,2.064-.012l5.174,4.4a1.987,1.987,0,0,1,.23,2.8,1.986,1.986,0,0,1-.957.622l-3.62-3.08a2.842,2.842,0,0,0-3.729.021l-3.421,2.978a.638.638,0,0,0-.062.9.638.638,0,0,0,.9.062L607-36.978a1.573,1.573,0,0,1,2.064-.012l5.174,4.4a1.989,1.989,0,0,1,.254,2.8,1.989,1.989,0,0,1-2.8.254l-.03-.025-3.2-2.724a.638.638,0,0,0-.865.035l-.951.951a.639.639,0,0,0,0,.9.639.639,0,0,0,.9,0l.534-.534,2.754,2.343a3.241,3.241,0,0,0,2.111.778,2.184,2.184,0,0,0,.268-.011,3.266,3.266,0,0,0,2.992-3.518,3.266,3.266,0,0,0-1.14-2.225l-.476-.4a3.264,3.264,0,0,0,1.186-4.461,3.264,3.264,0,0,0-.71-.85l-2.294-1.951,1.387-7.076,1.035-.867a3.269,3.269,0,0,0,1.081-3.256,3.869,3.869,0,0,1,1.455-.512,1.474,1.474,0,0,1,1.661,1.26,1.468,1.468,0,0,1,.009.322l-.615,7.428a2.465,2.465,0,0,0,.238,1.277l1.137,2.351a11.082,11.082,0,0,1,.133,9.384l-.731,1.628a.638.638,0,0,0-.014.489.638.638,0,0,0,.335.355.638.638,0,0,0,.489.014.638.638,0,0,0,.355-.335l.731-1.628a12.356,12.356,0,0,0-.148-10.463Zm-15.448-7.722v2l-3.978,3.33v-6.012a3.389,3.389,0,0,1,.594-1.92l3.651-5.343a1.989,1.989,0,0,1,2.765-.52,1.989,1.989,0,0,1,.52,2.765l-.67.981a.641.641,0,0,0-.057.1l-2.542,3.7A1.614,1.614,0,0,0,604.726-50.931Zm6.934,8.754-1.765-1.5a2.9,2.9,0,0,0-.719-.449L612.606-47Z" transform="translate(0 -68.977)" fill="#fff"/>
    <path id="Path_13312" data-name="Path 13312" d="M847.008,336.672a.638.638,0,0,0-.844.321l-1.635,3.641a.637.637,0,0,0-.056.261v4.842a.638.638,0,1,0,1.277,0v-4.7l1.579-3.516a.638.638,0,0,0-.321-.844Z" transform="translate(-227.721 -432.766)" fill="#fff"/>
    <path id="Path_13313" data-name="Path 13313" d="M823.849-126.059a.638.638,0,0,0,.638-.638v-9.075a.638.638,0,0,0-.638-.638.638.638,0,0,0-.638.638v9.075a.638.638,0,0,0,.638.638Z" transform="translate(-206.268 -2)" fill="#e40303"/>
    <path id="Path_13314" data-name="Path 13314" d="M867.257-107.171h0a.638.638,0,0,0,.868-.247l5.026-9.109a.638.638,0,0,0-.247-.868.638.638,0,0,0-.868.247l-5.026,9.108a.638.638,0,0,0-.057.486.638.638,0,0,0,.3.383Z" transform="translate(-246.266 -19.324)" fill="#e40303"/>
    <path id="Path_13315" data-name="Path 13315" d="M906.893-41.008a.638.638,0,0,0-.4-.286.638.638,0,0,0-.482.079l-8.145,5.089a.638.638,0,0,0-.285.4.638.638,0,0,0,.079.482.638.638,0,0,0,.4.285.638.638,0,0,0,.482-.079l8.145-5.089a.638.638,0,0,0,.206-.878Z" transform="translate(-274.296 -89.007)" fill="#e40303"/>
  </g>
</svg>
