<svg xmlns="http://www.w3.org/2000/svg" width="51.237" height="38.402" viewBox="0 0 51.237 38.402">
  <g id="Group_994" data-name="Group 994" transform="translate(-2588.436 -843.573)">
    <path id="Path_958" data-name="Path 958" d="M2636.116,930.522h20.045c3.089,0,4.146-.644,6.011-2.492l14.467-15.644a2.916,2.916,0,0,0,0-4.093h0a2.979,2.979,0,0,0-4.129,0L2659.9,919.756" transform="translate(-38.745 -52.127)" fill="none" stroke="#fff" stroke-miterlimit="10" stroke-width="1.5" fill-rule="evenodd"/>
    <path id="Path_959" data-name="Path 959" d="M2650.345,961.242h6.7a2.821,2.821,0,1,0,0-5.643h-6.7a9.689,9.689,0,0,0-11.718,1.547h-2.512" transform="translate(-38.745 -90.792)" fill="none" stroke="#fff" stroke-miterlimit="10" stroke-width="1.5" fill-rule="evenodd"/>
    <rect id="Rectangle_3031" data-name="Rectangle 3031" width="8.185" height="17.701" transform="translate(2589.186 863.524)" fill="none" stroke="#fff" stroke-miterlimit="10" stroke-width="1.5"/>
    <path id="Path_960" data-name="Path 960" d="M2718.121,846.308a1.986,1.986,0,1,1-.582-1.4A1.985,1.985,0,0,1,2718.121,846.308Z" transform="translate(-103.167 0)" fill="none" stroke="#e40303" stroke-miterlimit="10" stroke-width="1.5" fill-rule="evenodd"/>
    <path id="Path_961" data-name="Path 961" d="M2765.038,893.171a1.987,1.987,0,1,1-1.987-1.985A1.986,1.986,0,0,1,2765.038,893.171Z" transform="translate(-141.901 -38.69)" fill="none" stroke="#e40303" stroke-miterlimit="10" stroke-width="1.5" fill-rule="evenodd"/>
    <line id="Line_20" data-name="Line 20" y1="12.143" x2="12.157" transform="translate(2610.98 844.323)" fill="none" stroke="#e40303" stroke-miterlimit="10" stroke-width="1.5"/>
  </g>
</svg>
