<svg xmlns="http://www.w3.org/2000/svg" width="49.413" height="49.63" viewBox="0 0 49.413 49.63">
  <g id="medical_check" data-name="medical check" transform="translate(-821.25 -353.02)">
    <path id="Path_953" data-name="Path 953" d="M830,377.727a50.2,50.2,0,0,0,10.82,7.889s17-8.775,17-19.881c0-5.348-4.1-9.735-9.154-9.735" transform="translate(-1.817 -0.467)" fill="none" stroke="#fff" stroke-miterlimit="10" stroke-width="1.5"/>
    <path id="Path_954" data-name="Path 954" d="M831.154,356c-5.056,0-9.154,4.387-9.154,9.735a14.29,14.29,0,0,0,2.823,8.036" transform="translate(0 -0.467)" fill="none" stroke="#fff" stroke-miterlimit="10" stroke-width="1.5"/>
    <ellipse id="Ellipse_36" data-name="Ellipse 36" cx="2.5" cy="3" rx="2.5" ry="3" transform="translate(830.77 353.77)" fill="none" stroke="#fff" stroke-miterlimit="10" stroke-width="1.5"/>
    <ellipse id="Ellipse_37" data-name="Ellipse 37" cx="2" cy="3" rx="2" ry="3" transform="translate(842.77 353.77)" fill="none" stroke="#fff" stroke-miterlimit="10" stroke-width="1.5"/>
    <path id="Path_955" data-name="Path 955" d="M867.956,398.091v1.159a12.013,12.013,0,0,1-11.978,11.978h0A12.013,12.013,0,0,1,844,399.25V395" transform="translate(-4.999 -9.329)" fill="none" stroke="#fff" stroke-miterlimit="10" stroke-width="1.5"/>
    <path id="Path_956" data-name="Path 956" d="M869.864,398.178a6.955,6.955,0,1,1,6.182,0" transform="translate(-9.997 -7.057)" fill="none" stroke="#fff" stroke-miterlimit="10" stroke-width="1.5"/>
    <circle id="Ellipse_38" data-name="Ellipse 38" cx="3" cy="3" r="3" transform="translate(859.77 381.77)" fill="none" stroke="#fff" stroke-miterlimit="10" stroke-width="1.5"/>
    <path id="Path_957" data-name="Path 957" d="M822,376.273h6.955l2.318-3.864,3.864,7.728L839.774,367l3.864,9.273H847.5" transform="translate(0 -2.967)" fill="none" stroke="#e40303" stroke-miterlimit="10" stroke-width="1.5"/>
  </g>
</svg>
